<?xml version="1.0"?>
<svg xmlns="http://www.w3.org/2000/svg" xmlns:xlink="http://www.w3.org/1999/xlink" xmlns:svgjs="http://svgjs.com/svgjs" version="1.1" width="512" height="512" x="0" y="0" viewBox="0 0 512.001 512" style="enable-background:new 0 0 512 512" xml:space="preserve" class=""><g><link type="text/css" rel="stylesheet" id="dark-mode-custom-link"/><link type="text/css" rel="stylesheet" id="dark-mode-general-link"/><style lang="en" type="text/css" id="dark-mode-custom-style"/><style lang="en" type="text/css" id="dark-mode-native-style"/><path xmlns="http://www.w3.org/2000/svg" d="m121.242188 255.777344c0 74.425781 60.554687 134.980468 134.980468 134.980468 74.429688 0 134.980469-60.554687 134.980469-134.980468 0-74.429688-60.550781-134.980469-134.980469-134.980469-74.425781 0-134.980468 60.550781-134.980468 134.980469zm150.808593 22.640625c-1.511719-1.511719-3.605469-2.878907-6.28125-4.101563-2.675781-1.21875-5.839843-2.351562-9.503906-3.398437s-7.648437-2.207031-11.949219-3.488281c-5.699218-1.746094-10.640625-3.632813-14.828125-5.667969-4.1875-2.035157-7.648437-4.390625-10.378906-7.066407-2.734375-2.671874-4.769531-5.757812-6.105469-9.246093-1.335937-3.488281-2.003906-7.558594-2.003906-12.210938 0-6.507812 1.21875-12.265625 3.664062-17.265625 2.441407-5 5.753907-9.214844 9.941407-12.648437 4.1875-3.425781 9.039062-6.015625 14.5625-7.761719.65625-.203125 1.3125-.394531 1.972656-.578125v-23.191406h30.027344v22.742187c3.558593.753906 7 1.671875 10.300781 2.773438 3.835938 1.28125 7.414062 2.734375 10.726562 4.359375 3.316407 1.628906 6.367188 3.257812 9.160157 4.886719l-12.558594 23.722656c-.351563-.464844-1.570313-1.335938-3.664063-2.617188-2.09375-1.277344-4.710937-2.617187-7.851562-4.011718-3.136719-1.394532-6.570312-2.617188-10.289062-3.664063-3.722657-1.046875-7.445313-1.570313-11.164063-1.570313-10.234375 0-15.351563 3.433594-15.351563 10.292969 0 2.09375.550782 3.835938 1.660157 5.234375 1.101562 1.394532 2.730469 2.644532 4.882812 3.75 2.148438 1.105469 4.855469 2.121094 8.109375 3.050782 3.253906.933593 7.035156 1.980468 11.339844 3.140624 5.929688 1.628907 11.277344 3.402344 16.046875 5.320313s8.808594 4.300781 12.125 7.152344c3.3125 2.847656 5.871094 6.308593 7.671875 10.378906 1.804688 4.070313 2.703125 8.953125 2.703125 14.652344 0 6.976562-1.304687 12.878906-3.921875 17.703125-2.617188 4.828125-6.078125 8.722656-10.378906 11.6875-4.304688 2.964844-9.246094 5.117187-14.828125 6.453125-1.558594.375-3.132813.6875-4.71875.957031v23.21875h-30.027344v-23.792969c-3.542969-.644531-7.019531-1.46875-10.429687-2.476562-4.535157-1.335938-8.925782-2.933594-13.171876-4.796875-4.246093-1.859375-8.167968-4.011719-11.773437-6.453125l12.558594-24.945313c.464843.585938 1.976562 1.6875 4.535156 3.316406 2.558594 1.628907 5.726563 3.257813 9.507813 4.882813 3.777343 1.632813 7.992187 3.085937 12.644531 4.363281 4.652343 1.28125 9.359375 1.917969 14.128906 1.917969 10.117187 0 15.175781-3.078125 15.175781-9.246094 0-2.328125-.757812-4.246093-2.265625-5.757812zm0 0" fill="#6599f4" data-original="#000000"/><path xmlns="http://www.w3.org/2000/svg" d="m271.238281 91.460938c79.027344 7.160156 142.140625 70.273437 149.300781 149.304687h91.460938c-3.605469-62.796875-29.761719-121.328125-74.597656-166.167969-44.839844-44.835937-103.371094-70.992187-166.164063-74.597656zm0 0" fill="#6599f4" data-original="#000000"/><path xmlns="http://www.w3.org/2000/svg" d="m420.539062 270.789062c-7.609374 83.976563-78.390624 149.992188-164.316406 149.992188-90.984375 0-165.003906-74.019531-165.003906-165.003906 0-85.921875 66.015625-156.707032 149.992188-164.316406v-91.460938c-62.792969 3.605469-121.328126 29.761719-166.164063 74.601562-48.394531 48.390626-75.046875 112.734376-75.046875 181.175782 0 68.4375 26.652344 132.78125 75.046875 181.175781s112.738281 75.046875 181.175781 75.046875c68.441406 0 132.785156-26.652344 181.179688-75.046875 44.835937-44.835937 70.992187-103.371094 74.597656-166.164063zm0 0" fill="#6599f4" data-original="#000000"/></g></svg>
